<?xml version="1.0" encoding="UTF-8"?>
<svg version="1.1" viewBox="0 0 2000 2000" width="1280" height="1280" xmlns="http://www.w3.org/2000/svg">
<path transform="translate(271,92)" d="m0 0h28l19 2 1122 1 16 4 11 6 10 8 11 15 12 19 4 10 4 19 1 11v58l-1 294-1 167v145l2 2 6-4 7-7 7-8 22-22 8-7 7-8 27-27 8-7 16-17 7-7h2l1-3 8-7 7-6 7-8 12-12 3-4h2l2-4 4-4h2v-2l8-7 9-10 7-6 21-11 13-4 18-3h11l17 3 17 6 13 8 10 9 9 9 9 14 4 10 4 17v27l-2 11-4 12-8 14-8 12-9 12-14 17-11 12-19 19-7 8-8 7-16 16-8 7-12 12-7 8-26 26-7 8-16 16-8 7-14 11-10 5-13 2-10-1-4-2h-5l-14 13-11 8-17 9 8 10 6 8 2 5-1 7-9 13-11 12-26 26h-2l-1 3-8 7-8 8-1 6-1 132-2 144-1 142 154-2h25l13 3 10 5 8 9 4 10v48l-2 222-2 9-7 12-10 9-8 3-29 4-70 6h-27l-21 1-4 1-15-1h-260l-163-2v3l-3 1-4-1v-3l-120-1-173-2-177-1-314-3-14-2-24-7-18-7-12-8-22-18-14-15-6-10-6-17-3-16-2-17 1-14 1-50 1-188 1-53 1-105 1-70 1-296 1-229 1-334 1-260 3-9 7-14 9-12 11-11 10-7 10-5z" fill="#FEF7E4"/>
<path transform="translate(271,92)" d="m0 0h28l19 2 1122 1 16 4 11 6 10 8 11 15 12 19 4 10 4 19 1 11v58l-1 294-1 167v145l2 2 6-4 7-7 7-8 22-22 8-7 7-8 27-27 8-7 16-17 7-7h2l1-3 8-7 7-6 7-8 12-12 3-4h2l2-4 4-4h2v-2l8-7 9-10 7-6 21-11 13-4 18-3h11l17 3 17 6 13 8 10 9 9 9 9 14 4 10 4 17v27l-2 11-4 12-8 14-8 12-9 12-14 17-11 12-19 19-7 8-8 7-16 16-8 7-12 12-7 8-26 26-7 8-16 16-8 7-14 11-10 5-13 2-10-1-4-2h-5l-14 13-11 8-17 9 8 10 6 8 2 5-1 7-9 13-11 12-26 26h-2l-1 3-8 7-8 8-1 6-1 132-2 144-1 142 154-2h25l13 3 10 5 8 9 4 10v48l-2 222-2 9-7 12-10 9-8 3-29 4-70 6h-27l-21 1-4 1-15-1h-260l-163-2v3l-3 1-4-1v-3l-120-1-173-2-177-1-314-3-14-2-24-7-18-7-12-8-22-18-14-15-6-10-6-17-3-16-2-17 1-14 1-50 1-188 1-53 1-105 1-70 1-296 1-229 1-334 1-260 3-9 7-14 9-12 11-11 10-7 10-5zm36 72-10 2-12 4-13 9-4 4v2l-3 1-4 6-1 4-1 32-1 290-1 579v677l6 9 8 6 4 4 14 7 13 4 18 4 17 2 18 1 14-2 7-3 8-7 9-16 8-21 1-10 2-38 5-84 1-29 1-14 5-14 7-12 11-12 7-6 8-4 50-7 22-2h40l23 2 36 1 12 4 8 6 4 5 4 13v13l-7 14-3 3-29 4-16 2h-15l-7-2-9-1h-14l-3 1h-28l-20 2-11 4-8 4-10 3-2 2-1 4-1 64-2 47-4 39-4 20-6 16-8 15 1 5 272 1 697 4h122l16-7 8-7 4-8 4-16 3-26 1-13v-83l-2-25-3-16-5-17-3-3-770-4-36-1-16-3-9-4-6-5-5-10v-17l4-10 5-5 11-5 8-2h102l61 1 88 1 159 3 84 1h136l66-1-1-352-2-1v2l-3 1v2l-4 2-16 17-25 25-8 7-11 10-8 7-51 51-8 7-10 9-17 13-15 9-23 11-23 8-11 2h-13l-13 4h-9l-13 5-5 4-15 5-24 4-19 1-28-4-27-6-19-5-13-2h-27l-13 2-15 5-14 5-36 7h-19l-17-1-27-5-26-8-18-6-15-4-14-3-20-9-11-11-3-7-1-7v-8l5-10 8-7 13-7 4-1h14l28 4 44 13 26 8 8 2h25l18-8 8-4 17-6 28-6 14-2h10l25 4 38 13 15 6 19 5 7-1 7-6 4-8 2-5v-28l2-25 3-6-1-4-23 2h-10l-20-3-14-5-24-10-13-5-17-4h-10l-22 5-16 4-25 10-13 5-15 4-9 1h-28l-27-5-18-6-42-18-30-9-8-4-3-3-3-10v-15l6-12 8-6 12-6h19l26 7 33 12 14 4 6 1h22l22-3 24-4 25-8 18-3 12-1h11l18 2 15 1 11 3 13 2 35 13 9 2h16l21-6 11-5 20-6 27-5 6-3 14-12 12-12 7-8 11-11 6-7 11-9 1-3-11-8-10-5-4-1h-32l-12 3-28 8-8 4-17 3-7 1h-32l-25-4-12-3-16-3-12-3-2-4-7-3h-12l-16 3-21 3-9 4-17 5-11 4-21 6-14 3-10 2h-23l-28-3-14-4-6-4-45-15-5-2-10-2-12-5-2-5-8-8-2-3-1-8 2-9 1-12 4-8 6-5 12-6 4-1h14l18 1 16 4 13 4 36 9 5 1h19l35-10 16-4 23-4 9-2h21l19 1 21 4 11 4 13 4 34 7h20l27-4 18-6 38-6h38l15 3 21 7 19 7 29 8h8l4-5 8-7 24-24 7-8 9-10 7-9v-2h2l7-8 5-4 7-8 10-9v-2h2l6-7 4-2 7-8 14-15 2-5 1-16v-609l-1-71-2-21-4-7h-2l-2-5-9-9-5-3-20-2-61-1-831-2-119-1z" fill="#FED670"/>
<path transform="translate(430,341)" d="m0 0 11 1 11 4 28 13 18 8 6-2 15-7 14-5 7-1h25l13 4 11 6 9 9 8 13 11 25 3 7 20 4 10 6 9 8 9 14 4 10 4 17 3 26 3 44 1 9v24l-3 19-7 19-10 24-11 23-6 11-8 10-20 20-8 7-12 10-14 10-22 9-15 5-20 5-2 1-2 79-2 95-1 36v19l2 16 4 12 6 10 8 10 12 18 9 15v2l4-2 5-6 19-10 9-2 7 4 9 9 7 12 3 9-1 9-5 10-27 41-9 16-14 27-6 32-4 27-8 37-9 60-12 53-3 21-5 13-9 12-4 3-12 2h-17l-8-4-8-10-4-8-2-9v-9l10-66 4-36 7-52 8-48 7-36 6-30 4-17v-12l-7-10-10-12-12-17-9-14-10-22-3-10-2-12-1-13v-36l1-6v-13l-1-13-3-3-11-8-7-8-13-15-7-7-7-12-2-7v-15l5-10 7-7 12-6 6-1h9l11 4 7 3h3v-45l2-41-9-1-24-7-20-8-11-6-15-10-9-8-8-7-9-9-7-8-11-14-12-20-6-13-6-21-4-26-4-45-1-24v-21l3-28 3-14 5-12 8-11 9-8 10-6 16-4h2l2-9 12-28 6-11 10-11 11-7 12-5z" fill="#FED670"/>
<path transform="translate(1369,168)" d="m0 0h25l20 2 8 6 7 7 1 4h2l4 7 2 22 1 71v612l-1 12-3 6-7 7-7 8-6 7-6 4-4 5h-2l-2 4-14 13-12 12-1 2h-2l-2 5-11 12-9 10-7 8-30 30h-8l-1-2 8-1 4-5 4-4h2v-2h2l2-4 16-16 5-7h2l2-4 9-9 6-9 2-7 2-169v-82l1-94v-167l-1-87v-32l1-35 1-15 1-47v-75l-4-1z" fill="#FFF0C0"/>
<path transform="translate(752,866)" d="m0 0 17 1 23 5 35 11 20 4 17 5h19l19-4 16-6 30-10 11-2h47l14 2 9 4 23 7 10 4 21 6 4 1h10l16-3 21-3 21-7 19-5 17-5h12l21 4 26 6 62 16 16 7 9 7 5 8 3 11v13l-3 7-4 5-7 6-15 5-10 1-14-4-25-4-20-7-21-8-7-2-12-1h-22l-11 8-19 10-14 7-10 2-21 1h-33l-22-2-20-6-10-4-5-3-13-6-15-6h-20l-21 4-18 2-13 5-15 7-9 4-7 4-15 4h-26l-21-3-19-7-30-6-28-8-9-5-5-4v-12l-9-15-2-6 1-14 7-13 9-8z" fill="#FED670"/>
<path transform="translate(769,723)" d="m0 0 12 1 27 8 26 8 28 5h16l25-2 14-3 17-4 30-7 19-3h21l11 2 21 7 27 8 18 3 7 2h23l12-2 18-9 16-4 15-2 34-3 9-1h21l16 4 24 10 37 14 15 6 12 7 4 5 5 10v14l-6 10-7 6-13 4h-25l-15-2-20-4-27-8-13-4-7-1-26-1-10 1-18 7-14 4-26 6-19 2-21 1-43-8-16-4-15-5-12-3-14 1-19 3-32 9-20 5h-36l-40-5-22-4-21-6-20-7-24-6-13-5-8-6-6-7v-17l3-9 6-8 10-7 13-4z" fill="#FED670"/>
<path transform="translate(767,576)" d="m0 0 9 1 21 5 26 9 18 6 24 4 15 2h13l22-5 16-6 10-4 18-4 7-1h37l22 2 15 3 19 5 22 5 13 2h15l23-5 18-5 8-3 29-7 13-1 17 2 27 5 24 8 20 8 19 2 13 5 15 8 9 8 5 8 2 6v9l-4 9-6 8-8 5-4 2h-23l-36-6-12-4-26-11-6-1h-30l-23 5-15 4-11 5-28 7-8 1h-22l-16-2-22-2-19-5-16-4-32-6h-12l-12 3-17 3-27 7-31 6-10 1h-14l-22-1-16-6-15-8-21-8-18-6-17-6-9-7-7-7-3-8v-10l4-11 7-8 11-7z" fill="#FED670"/>
<path transform="translate(366,474)" d="m0 0 7 4 17 17 7 8 11 11 4 5 24 24 7 8 12 13 11 12 10 10 5 7 7 6 5-1 15-14 16-16 7-8 22-22 12-13 17-17 7-8 12-12 7-8 7-5 4 1 2 28 1 32v40l-3 16-7 19-10 21-7 11-13 15-11 10-15 9-11 5-23 6-17 3-12 1h-11l-23-3-12-3-17-8-15-9-10-8-17-17-7-10-8-14-6-17-4-17v-66l1-45z" fill="#FEF7E4"/>
<path transform="translate(1745,707)" d="m0 0h13l9 4 7 7 6 10 3 8v9l-2 8-6 10-9 13-10 12-7 8-15 16-4 5-53 53h-2l-1 3-9 9h-2l-1 3-8 7-32 32-8 7-7 7-1 2h-2l-10 20-2 6v7l7 14 3 2-5 2-13 12-11 8-16 8-4 1-13-12-7-7v-2l-3-1-5-6-5-5-16-15-12-11-7-5v-5l9-7 8-8h2l2-4 39-39 8-7 15-15 5-6 8-7 13-13 8-7 16-17 15-14 8-8h2l2-4 16-16h2l1-3 8-7 37-37h2l1-3 8-7 9-8 12-6z" fill="#FEF7E3"/>
<path transform="translate(763,434)" d="m0 0h15l39 10 17 4 16 4 10 3h9l24-4 40-10 17-4 17-2h42l32 5 20 7 25 11h17l10 2 10 5 7 7 5 10 3 15v8l-4 6-11 8-15 7-18 5h-22l-13-6-30-9-12-4-14-4-10-2h-16l-17 3-37 10-10 2-14 3-31 3h-15l-15-3-11-4-17-4-14-5-9-5-15-6-9-4-13 1-9-3-3-7-5-11v-10l7-14 8-9 10-6z" fill="#FED670"/>
<path transform="translate(1434,1190)" d="m0 0 2 1 1 352-66 1h-136v-1l133-1-1-111v-128l1-30 1-15-5 3-2-1 10-9 8-7 15-14 25-25 7-8 4-2 1-3h2z" fill="#FFF0C0"/>
<path transform="translate(1368,1072)" d="m0 0 4 2 14 15 22 22 8 10 3 4-2 5-12 11-8 7-12 11-3 3h-2v2l-8 7-62 62-8 7-17 17-8 7-13 10-20 12-15 6-15 5-21 6-11 1 1-9 6-21 7-17 8-17 10-16 13-18 11-14 15-16 7-8 16-17 12-11 11-9 13-11 11-9 13-11 8-7 16-15z" fill="#FEF7E4"/>
<path transform="translate(440,413)" d="m0 0 9 1 14 7 25 15 6 1 19-11 10-6 6-3 4-1h8l16 3 3 2 3 12v21l-7 14-15 16-10 10-11 9-9 6-11 7-6 5-6-1-16-12-16-13-10-8-20-20-7-11-6-15 1-9 6-10 8-7z" fill="#FEF7E4"/>
<path transform="translate(1729,714)" d="m0 0 2 1-5 6-4 4h-2l-2 4h-2l-1 3-8 7-6 6h-2l-2 4h-2l-2 4-4 4h-2l-2 4-5 4-8 8h-3l1 3-5 3-4 2v2l-5 5-3 5h-2l-1 3-3 1-6 7-8 7-8 9-4 1-2 4-3 1-2 4h-2l-1 2h-2l2-4 11-11 8-7 11-11h2l2-4 16-16h2l1-3 8-7 37-37h2l1-3 8-7z" fill="#FEF0C3"/>
<path transform="translate(335,422)" d="m0 0 2 2-13 11-9 14-4 11-4 27-1 12v21l2 36 2 22v10h-2v-9l-1-1-1-17-1-2v-13l-1-13-1-29 2-25 4-22 6-14 8-11 6-5 4-3z" fill="#FFF0C0"/>
<path transform="translate(1370,978)" d="m0 0 1 3-2 4-9 10-10 11-7 8-30 30h-8l-1-2 8-1 4-5 4-4h2v-2h2l2-4 16-16 5-7h2l2-4 9-9 4-5 3-3z" fill="#FEF0C2"/>
<path transform="translate(1386,1155)" d="m0 0 2 1-6 6h-2v2l-8 7-62 62-2-1 21-21 7-8 8-8h2l2-4 8-8 8-7 7-8 8-7z" fill="#FEF0C0"/>
<path transform="translate(1729,714)" d="m0 0 2 1-5 6-4 4h-2l-2 4h-2l-1 3-8 7-6 6h-2l-2 4h-2l-2 4-4 4h-2l-2 4-1-3 41-41z" fill="#FEF0C1"/>
<path transform="translate(310,1803)" d="m0 0 1 2 6-1 3 1 10 2h37l7-2h3l-4 3-8 2-12 1-25-2-18-3-3-2z" fill="#FEF1C5"/>
<path transform="translate(1525,913)" d="m0 0 2 3-5 4-7 6-5 5-2 4-2 1-6 8-3 1v2l-6 4h-2l-1 5 1 2-4-2v-5l9-7 8-8h2l2-4z" fill="#FEF1C7"/>
<path transform="translate(1648,794)" d="m0 0 1 2-2-1zm-2 2m-1 1v3l-15 14-5 6-4 1-2 4-3 1-2 4h-2l-1 2h-2l2-4 11-11 8-7 11-11z" fill="#FEF4D2"/>
<path transform="translate(369,388)" d="m0 0h2l-3 9-7 19-18 5-4 1 2-3 9-4h8l10-25z" fill="#FFF0C0"/>
<path transform="translate(1599,841)" d="m0 0v3l-17 17-5 6-2-3 19-19z" fill="#FEF1C6"/>
<path transform="translate(1591,958)" d="m0 0 2 2-1 13 7 15-4-2-4-6-2-5v-12z" fill="#FEF0C3"/>
<path transform="translate(1554,885)" d="m0 0v3l-2 3-5 5-7 6-4 4-2-2 11-11 8-7z" fill="#FEF2CA"/>
<path transform="translate(273,178)" d="m0 0 3 1-6 7-5 7-2 3-2-1 1-4 4-6h2l2-4z" fill="#FEF0C4"/>
<path transform="translate(1525,913)" d="m0 0 2 3-5 4-7 6-5 5-2 4-2 1-2 2 1-5z" fill="#FEF0C3"/>
<path transform="translate(1627,813)" d="m0 0 2 3-5 4-4 2-1 3-3 1-2 4h-2l-1 2h-2l2-4 11-11z" fill="#FEF1C5"/>
<path transform="translate(1404,1138)" d="m0 0 2 2-10 9-8 6 2-4 11-11z" fill="#FFF0C0"/>
<path transform="translate(1544,1011)" d="m0 0 8 2 3 3 2 1v2l-4 1-9-8z" fill="#FEF3D1"/>
<path transform="translate(1491,958)" d="m0 0 5 2 5 4-1 3-4-2-6-5z" fill="#FEF0C4"/>
<path transform="translate(377,373)" d="m0 0 1 2-6 13-2-1 2-6z" fill="#FEF0C1"/>
<path transform="translate(1607,833)" d="m0 0 2 3-7 6-2-2z" fill="#FEF2CA"/>
</svg>
