<svg version="1.2" xmlns="http://www.w3.org/2000/svg" viewBox="0 0 1531 639" width="1531" height="639">
	<title>Hewlett_Packard_Enterprise_logo-svg</title>
	<style>
		.s0 { fill: #00b188 } 
		.s1 { fill: #ffffff } 
	</style>
	<g id="Layer">
		<g id="Layer">
			<path id="Layer" fill-rule="evenodd" class="s0" d="m524.1 150.6h-523.3v-150.3h523.3zm-490.6-32.7h457.9v-84.8h-457.9z"/>
			<g id="Layer">
				<path id="Layer" fill-rule="evenodd" class="s1" d="m33.5 399.1h-32.7v-150.3h32.7v59.4h58.5v-59.4h32.7v150.3h-32.7v-62.3h-58.5zm165.8 2c-33.2 0-55.8-20.9-55.8-55.3 0-33.4 22.1-56.5 51.5-56.5 32 0 47.8 21.4 47.8 53.4v12h-68.3c3.9 16.6 16.9 20.9 29.9 20.9 11.3 0 19.4-2.4 29.5-8.7h1.2v24.8c-8.6 6.3-20.9 9.4-35.8 9.4zm-24.8-68.3h39c-0.7-11.1-5.3-18.8-18.1-18.8-9.6 0-18 4.1-20.9 18.8zm153.5 3.3l-16.8 63h-28.7l-32.7-105.7v-1.3h31.3l17.8 63.3 16.8-63.3h25.5l17.1 63.3 18-63.3h30.1v1.3l-32.7 105.7h-28.6zm131 64.7c-25.9 0-36.5-10.3-36.5-34.6v-118.1h31.7v115.9c0 7.5 2.9 10.1 9.2 10.1 2.1 0 5.3-0.7 7.2-1.4h0.5v26.2c-2.7 0.9-7.3 1.9-12.1 1.9zm77.1 0.3c-33.2 0-55.8-20.9-55.8-55.3 0-33.4 22.1-56.5 51.4-56.5 32 0 47.9 21.4 47.9 53.4v12h-68.3c3.8 16.6 16.8 20.9 29.8 20.9 11.3 0 19.5-2.4 29.6-8.7h1.2v24.8c-8.6 6.3-20.9 9.4-35.8 9.4zm-24.8-68.3h39c-0.8-11.1-5.3-18.8-18.1-18.8-9.6 0-18 4.1-20.9 18.8zm199.1-40.7h23.6v25.5h-23.6v43.6c0 9.3 3.6 13.7 13.2 13.7 2.7 0 6-0.3 9.6-1.5h0.8v25c-4.1 1.5-10.4 3.1-19.5 3.1-25.8 0-35.9-11.7-35.9-38.9v-45h-40.6v43.6c0 9.3 3.6 13.7 13.2 13.7 2.7 0 6-0.3 9.6-1.5h0.8v25c-4.1 1.5-10.4 3.1-19.5 3.1-25.8 0-35.9-11.7-35.9-38.9v-45h-16.3v-25.5h16.3v-29.3h31.8v29.3h40.6v-29.3h31.8zm188 7c0 32.7-21.9 50.5-55.1 50.5h-23.4v48.8h-32.7v-150.3h56.1c33.2 0 55.1 17.8 55.1 51zm-57.8 22.9c16.6 0 24.6-9.4 24.6-22.9 0-13.9-8-23.3-24.6-23.3h-20.7v46.2zm128.8 66.2c-7 8.4-17.4 12.5-28.4 12.5-20.9 0-38-12.7-38-35.4 0-20.9 17.1-34.8 41.6-34.8q11.5 0 23.8 3.6v-1.9c0-11.6-6.5-16.6-23.6-16.6-10.8 0-21.1 3.1-30 8.2h-1.2v-25.5c8.1-4.8 22.6-8.9 36.7-8.9 32.3 0 49.8 15.4 49.8 42.3v67.1h-30.7zm-1-23.1v-9.2c-4.8-2.6-11.1-3.6-17.6-3.6-10.3 0-16.6 3.9-16.6 12.5 0 8.9 6.3 12.8 15.7 12.8 8.9 0 15.6-4.6 18.5-12.5zm47.3-19.9c0-34.4 24.3-56.1 56-56.1 11.3 0 21.9 2.4 29.9 8.2v27.2h-1.3c-6.9-5.3-15.1-8.4-24.5-8.4-15.9 0-27.9 10.8-27.9 29.1 0 18.2 12 28.8 27.9 28.8 9.4 0 17.6-3.1 24.5-8.4h1.3v27.2c-8 5.7-18.6 8.2-29.9 8.2-31.7 0-56-21.4-56-55.8zm137.7 4.9v48.6h-31.8v-150.3h31.8v85.6l32-42.3h36.1v1.2l-38.5 48.5 38.5 56.1v1.2h-36.4c0 0-31.7-48.6-31.7-48.6zm140.3 38.1c-7 8.4-17.3 12.5-28.4 12.5-20.9 0-38-12.8-38-35.4 0-20.9 17.1-34.8 41.6-34.8q11.6 0 23.8 3.6v-2c0-11.5-6.4-16.5-23.5-16.5-10.8 0-21.2 3.1-30.1 8.1h-1.2v-25.5c8.2-4.8 22.6-8.9 36.8-8.9 32.3 0 49.8 15.4 49.8 42.4v67h-30.8zm-1-23v-9.2c-4.8-2.6-11-3.6-17.5-3.6-10.3 0-16.6 3.9-16.6 12.5 0 8.9 6.3 12.8 15.6 12.8 8.9 0 15.7-4.6 18.5-12.5zm85.5-56.4c5.8-11.8 14.2-18.6 26-18.6 4.3 0 8.6 1 10.3 2v30.3h-1.2c-3.6-1.5-7.9-2.4-13.9-2.4-9.9 0-17.6 5.7-20.3 16.8v61.5h-31.7v-107h30.8c0 0 0 17.4 0 17.4zm121.2 79.1c-6.7 8.7-17.3 13.5-31.7 13.5-27.4 0-45-25-45-55.8 0-30.8 17.6-56 45-56 13.9 0 24 4.3 30.8 12.2v-53.1h31.7v150.2h-30.8c0 0 0-11 0-11zm-0.9-25.2v-34.4c-5.3-7.7-12.3-11.1-20.2-11.1-14 0-23.4 10.1-23.4 28.4 0 18.3 9.4 28.1 23.4 28.1 7.9 0 14.9-3.3 20.2-11zm-1497.4 85.4h92.9v18.3h-71.9v45.9h65.1v17.8h-65.1v50h71.9v18.3h-92.9c0 0 0-150.3 0-150.3zm169.3 42.3c23.8 0 37 15.6 37 41.3v66.7h-20v-66.2c0-13.7-6.9-23.5-22.1-23.5-12.5 0-23.1 7.9-26.7 19.2v70.5h-19.9v-105.8h19.9v15.4c6.3-9.9 16.9-17.6 31.8-17.6zm90.4 1.7h27.2v17h-27.2v57c0 12 6.2 16.1 17.5 16.1 3.2 0 6.5-0.4 8.9-1.4h0.8v17.1c-2.9 1.2-7 2.1-12.5 2.1-24.8 0-34.7-11.3-34.7-32v-58.9h-18.3v-17h18.3v-28.2h20zm92.1 108.6c-31.1 0-52.2-20.7-52.2-53.9 0-33.2 19.7-56.2 48.3-56.2 29.1 0 44.3 20.9 44.3 51.9v9.1h-72.7c2.2 21.4 15.9 31.8 34.9 31.8 11.8 0 20.2-2.7 29.6-9.7h0.7v17.6c-8.6 6.7-20 9.4-32.9 9.4zm-31.6-65.4h52.7c-0.7-15.7-8.4-27.7-24.8-27.7-15.1 0-25 11.3-27.9 27.7zm116.2-26.6c4.6-11.3 14.7-18 26.2-18 4.6 0 8.7 0.7 10.3 1.7v19.7h-0.7c-2.9-1.4-7.7-2.2-12.5-2.2-10.8 0-19.9 7.2-23.3 19.3v69h-20v-105.8h20c0 0 0 16.4 0 16.3zm103.7-18.2c31.5 0 48.4 25.7 48.4 55 0 29.4-16.9 55.1-48.4 55.1-13 0-24-6.7-29.6-14v52.5h-19.9v-146.4h19.9v12c5.6-7.5 16.6-14.2 29.6-14.2zm-3.3 92.1c19.7 0 31.2-15.7 31.2-37.1 0-21.1-11.5-37-31.2-37-10.9 0-21 6.5-26.3 16.8v40.7c5.3 10.3 15.4 16.6 26.3 16.6zm95.4-73.9c4.5-11.3 14.6-18 26.2-18 4.5 0 8.6 0.7 10.3 1.7v19.7h-0.7c-2.9-1.4-7.7-2.2-12.5-2.2-10.8 0-20 7.2-23.3 19.3v69h-20v-105.8h20c0 0 0 16.4 0 16.3zm65.5-33.9c-7.1 0-12.8-5.5-12.8-12.5 0-6.9 5.7-12.5 12.8-12.5 7 0 12.7 5.6 12.7 12.5 0 7-5.7 12.5-12.7 12.5zm-10 17.7h20v105.8h-20zm91.3 43.6c15.1 4.8 32 11.1 32 31.3 0 21.6-17.8 32.7-40.7 32.7-13.9 0-27.9-3.4-35.8-9.6v-19h0.9c9 8.2 22.2 11.8 34.7 11.8 11.3 0 21.4-4.4 21.4-13.5 0-9.4-8.4-11.5-25-17.1-14.9-4.8-31.5-10.3-31.5-30.3 0-20.4 16.8-32.4 38.2-32.4 12.5 0 23.6 2.6 32.5 8.6v19.3h-0.7c-8.7-7-18.8-11.1-31.3-11.1-12.5 0-19.5 5.5-19.5 13 0 8.4 7.7 10.8 24.8 16.3zm101.2 64.6c-31.1 0-52.2-20.7-52.2-53.8 0-33.2 19.7-56.3 48.3-56.3 29.1 0 44.3 20.9 44.3 51.9v9.2h-72.7c2.2 21.4 15.9 31.7 34.9 31.7 11.8 0 20.2-2.6 29.6-9.6h0.7v17.5c-8.6 6.8-19.9 9.4-32.9 9.4zm-31.5-65.4h52.6c-0.7-15.6-8.4-27.6-24.7-27.6-15.2 0-25.1 11.3-27.9 27.6z"/>
			</g>
		</g>
	</g>
</svg>